<?xml version="1.0" encoding="utf-8" standalone="no"?>
<!DOCTYPE svg PUBLIC "-//W3C//DTD SVG 1.1//EN"
  "http://www.w3.org/Graphics/SVG/1.1/DTD/svg11.dtd">
<svg xmlns:xlink="http://www.w3.org/1999/xlink" width="453.6pt" height="111.6pt" viewBox="0 0 453.6 111.6" xmlns="http://www.w3.org/2000/svg" version="1.1">
 <metadata>
  <rdf:RDF xmlns:dc="http://purl.org/dc/elements/1.1/" xmlns:cc="http://creativecommons.org/ns#" xmlns:rdf="http://www.w3.org/1999/02/22-rdf-syntax-ns#">
   <cc:Work>
    <dc:type rdf:resource="http://purl.org/dc/dcmitype/StillImage"/>
    <dc:date>2026-06-05T10:57:49.738464</dc:date>
    <dc:format>image/svg+xml</dc:format>
    <dc:creator>
     <cc:Agent>
      <dc:title>Matplotlib v3.10.8, https://matplotlib.org/</dc:title>
     </cc:Agent>
    </dc:creator>
   </cc:Work>
  </rdf:RDF>
 </metadata>
 <defs>
  <style type="text/css">*{stroke-linejoin: round; stroke-linecap: butt}</style>
 </defs>
 <g id="figure_1">
  <g id="patch_1">
   <path d="M 0 111.6 
L 453.6 111.6 
L 453.6 0 
L 0 0 
z
" style="fill: #ffffff"/>
  </g>
  <g id="axes_1">
   <g id="patch_2">
    <path d="M 29.52 32.4 
L 132.48 32.4 
Q 136.8 32.4 136.8 36.72 
L 136.8 72.72 
Q 136.8 77.04 132.48 77.04 
L 29.52 77.04 
Q 25.2 77.04 25.2 72.72 
L 25.2 36.72 
Q 25.2 32.4 29.52 32.4 
z
" clip-path="url(#p508a30acaf)" style="fill: #ffffff; stroke: #000000; stroke-width: 0.9; stroke-linejoin: miter"/>
   </g>
   <g id="patch_3">
    <path d="M 175.32 32.4 
L 278.28 32.4 
Q 282.6 32.4 282.6 36.72 
L 282.6 72.72 
Q 282.6 77.04 278.28 77.04 
L 175.32 77.04 
Q 171 77.04 171 72.72 
L 171 36.72 
Q 171 32.4 175.32 32.4 
z
" clip-path="url(#p508a30acaf)" style="fill: #ffffff; stroke: #000000; stroke-width: 0.9; stroke-linejoin: miter"/>
   </g>
   <g id="patch_4">
    <path d="M 321.12 32.4 
L 424.08 32.4 
Q 428.4 32.4 428.4 36.72 
L 428.4 72.72 
Q 428.4 77.04 424.08 77.04 
L 321.12 77.04 
Q 316.8 77.04 316.8 72.72 
L 316.8 36.72 
Q 316.8 32.4 321.12 32.4 
z
" clip-path="url(#p508a30acaf)" style="fill: #ffffff; stroke: #000000; stroke-width: 0.9; stroke-linejoin: miter"/>
   </g>
   <g id="text_1">
    <text style="font-weight: 700; font-size: 9.5px; font-family: 'Liberation Sans'; text-anchor: middle" x="81" y="51.395859" transform="rotate(-0 81 51.395859)">VrEditing</text>
   </g>
   <g id="text_2">
    <text style="font-size: 7.5px; font-family: 'Liberation Sans'; text-anchor: middle" x="81" y="66.739453" transform="rotate(-0 81 66.739453)">режим редактирования</text>
   </g>
   <g id="text_3">
    <text style="font-weight: 700; font-size: 9.5px; font-family: 'Liberation Sans'; text-anchor: middle" x="226.8" y="51.416641" transform="rotate(-0 226.8 51.416641)">MainMenu</text>
   </g>
   <g id="text_4">
    <text style="font-size: 7.5px; font-family: 'Liberation Sans'; text-anchor: middle" x="226.8" y="66.739453" transform="rotate(-0 226.8 66.739453)">главное меню</text>
   </g>
   <g id="text_5">
    <text style="font-weight: 700; font-size: 9.5px; font-family: 'Liberation Sans'; text-anchor: middle" x="372.6" y="51.416641" transform="rotate(-0 372.6 51.416641)">Sandbox</text>
   </g>
   <g id="text_6">
    <text style="font-size: 7.5px; font-family: 'Liberation Sans'; text-anchor: middle" x="372.6" y="66.739453" transform="rotate(-0 372.6 66.739453)">режим песочницы</text>
   </g>
   <g id="text_7">
    <text style="font-style: italic; font-size: 7.5px; font-family: 'Liberation Sans'; text-anchor: middle" x="226.8" y="97.033945" transform="rotate(-0 226.8 97.033945)">прямой переход VrEditing ↔ Sandbox не предусмотрен</text>
   </g>
   <g id="patch_5">
    <path d="M 139.805962 54.72 
Q 153.899503 54.72 167.993045 54.72 
" clip-path="url(#p508a30acaf)" style="fill: none; stroke: #000000; stroke-width: 0.9; stroke-linejoin: miter"/>
    <path d="M 143.405962 56.52 
L 139.805962 54.72 
L 143.405962 52.92 
z
" clip-path="url(#p508a30acaf)" style="stroke: #000000; stroke-width: 0.9; stroke-linejoin: miter"/>
    <path d="M 164.393045 52.92 
L 167.993045 54.72 
L 164.393045 56.52 
z
" clip-path="url(#p508a30acaf)" style="stroke: #000000; stroke-width: 0.9; stroke-linejoin: miter"/>
   </g>
   <g id="patch_6">
    <path d="M 285.605962 54.72 
Q 299.699503 54.72 313.793045 54.72 
" clip-path="url(#p508a30acaf)" style="fill: none; stroke: #000000; stroke-width: 0.9; stroke-linejoin: miter"/>
    <path d="M 289.205962 56.52 
L 285.605962 54.72 
L 289.205962 52.92 
z
" clip-path="url(#p508a30acaf)" style="stroke: #000000; stroke-width: 0.9; stroke-linejoin: miter"/>
    <path d="M 310.193045 52.92 
L 313.793045 54.72 
L 310.193045 56.52 
z
" clip-path="url(#p508a30acaf)" style="stroke: #000000; stroke-width: 0.9; stroke-linejoin: miter"/>
   </g>
  </g>
 </g>
 <defs>
  <clipPath id="p508a30acaf">
   <rect x="0" y="0" width="453.6" height="111.6"/>
  </clipPath>
 </defs>
</svg>
