<?xml version="1.0" encoding="utf-8" standalone="no"?>
<!DOCTYPE svg PUBLIC "-//W3C//DTD SVG 1.1//EN"
  "http://www.w3.org/Graphics/SVG/1.1/DTD/svg11.dtd">
<svg xmlns:xlink="http://www.w3.org/1999/xlink" width="453.6pt" height="270pt" viewBox="0 0 453.6 270" xmlns="http://www.w3.org/2000/svg" version="1.1">
 <metadata>
  <rdf:RDF xmlns:dc="http://purl.org/dc/elements/1.1/" xmlns:cc="http://creativecommons.org/ns#" xmlns:rdf="http://www.w3.org/1999/02/22-rdf-syntax-ns#">
   <cc:Work>
    <dc:type rdf:resource="http://purl.org/dc/dcmitype/StillImage"/>
    <dc:date>2026-06-05T11:04:21.257552</dc:date>
    <dc:format>image/svg+xml</dc:format>
    <dc:creator>
     <cc:Agent>
      <dc:title>Matplotlib v3.10.8, https://matplotlib.org/</dc:title>
     </cc:Agent>
    </dc:creator>
   </cc:Work>
  </rdf:RDF>
 </metadata>
 <defs>
  <style type="text/css">*{stroke-linejoin: round; stroke-linecap: butt}</style>
 </defs>
 <g id="figure_1">
  <g id="patch_1">
   <path d="M 0 270 
L 453.6 270 
L 453.6 0 
L 0 0 
z
" style="fill: #ffffff"/>
  </g>
  <g id="axes_1">
   <g id="patch_2">
    <path d="M 14.4 57.6 
L 138.24 57.6 
L 138.24 174.24 
L 14.4 174.24 
z
" clip-path="url(#p6732f52db6)" style="fill: #ffffff; stroke: #000000; stroke-width: 0.9; stroke-linejoin: miter"/>
   </g>
   <g id="line2d_1">
    <path d="M 14.4 76.32 
L 138.24 76.32 
" clip-path="url(#p6732f52db6)" style="fill: none; stroke: #000000; stroke-width: 0.9"/>
   </g>
   <g id="line2d_2">
    <path d="M 56.16 77.76 
L 56.16 171.36 
" clip-path="url(#p6732f52db6)" style="fill: none; stroke: #000000; stroke-width: 0.5"/>
   </g>
   <g id="line2d_3">
    <path d="M 98.64 77.76 
L 98.64 171.36 
" clip-path="url(#p6732f52db6)" style="fill: none; stroke: #000000; stroke-width: 0.5"/>
   </g>
   <g id="patch_3">
    <path d="M 180.72 97.2 
L 272.88 97.2 
Q 277.2 97.2 277.2 101.52 
L 277.2 150.48 
Q 277.2 154.8 272.88 154.8 
L 180.72 154.8 
Q 176.4 154.8 176.4 150.48 
L 176.4 101.52 
Q 176.4 97.2 180.72 97.2 
z
" clip-path="url(#p6732f52db6)" style="fill: #ffffff; stroke: #000000; stroke-width: 1.1; stroke-linejoin: miter"/>
   </g>
   <g id="patch_4">
    <path d="M 306 25.2 
L 439.2 25.2 
L 439.2 81.36 
L 306 81.36 
z
" clip-path="url(#p6732f52db6)" style="fill: #ffffff; stroke-dasharray: 3.2,1.6; stroke-dashoffset: 0; stroke: #000000; stroke-width: 0.8; stroke-linejoin: miter"/>
   </g>
   <g id="patch_5">
    <path d="M 317.16 44.64 
L 351.72 44.64 
L 351.72 72 
L 317.16 72 
z
" clip-path="url(#p6732f52db6)" style="fill: #ffffff; stroke: #000000; stroke-width: 1.5; stroke-linejoin: miter"/>
   </g>
   <g id="patch_6">
    <path d="M 355.32 44.64 
L 389.88 44.64 
L 389.88 72 
L 355.32 72 
z
" clip-path="url(#p6732f52db6)" style="fill: #ffffff; stroke: #000000; stroke-width: 0.6; stroke-linejoin: miter"/>
   </g>
   <g id="patch_7">
    <path d="M 393.48 44.64 
L 428.04 44.64 
L 428.04 72 
L 393.48 72 
z
" clip-path="url(#p6732f52db6)" style="fill: #ffffff; stroke: #000000; stroke-width: 0.6; stroke-linejoin: miter"/>
   </g>
   <g id="patch_8">
    <path d="M 306 97.2 
L 439.2 97.2 
L 439.2 153.36 
L 306 153.36 
z
" clip-path="url(#p6732f52db6)" style="fill: #ffffff; stroke-dasharray: 3.2,1.6; stroke-dashoffset: 0; stroke: #000000; stroke-width: 0.8; stroke-linejoin: miter"/>
   </g>
   <g id="patch_9">
    <path d="M 351 116.64 
L 394.2 116.64 
L 394.2 144 
L 351 144 
z
" clip-path="url(#p6732f52db6)" style="fill: #ffffff; stroke: #000000; stroke-width: 1.5; stroke-linejoin: miter"/>
   </g>
   <g id="patch_10">
    <path d="M 306 169.2 
L 439.2 169.2 
L 439.2 225.36 
L 306 225.36 
z
" clip-path="url(#p6732f52db6)" style="fill: #ffffff; stroke-dasharray: 3.2,1.6; stroke-dashoffset: 0; stroke: #000000; stroke-width: 0.8; stroke-linejoin: miter"/>
   </g>
   <g id="patch_11">
    <path d="M 351 188.64 
L 394.2 188.64 
L 394.2 216 
L 351 216 
z
" clip-path="url(#p6732f52db6)" style="fill: #ffffff; stroke: #000000; stroke-width: 1.5; stroke-linejoin: miter"/>
   </g>
   <g id="patch_12">
    <path d="M 83.52 223.2 
L 115.2 223.2 
Q 119.52 223.2 119.52 227.52 
L 119.52 247.68 
Q 119.52 252 115.2 252 
L 83.52 252 
Q 79.2 252 79.2 247.68 
L 79.2 227.52 
Q 79.2 223.2 83.52 223.2 
z
" clip-path="url(#p6732f52db6)" style="fill: #ffffff; stroke: #000000; stroke-width: 0.8; stroke-linejoin: miter"/>
   </g>
   <g id="patch_13">
    <path d="M 128.88 223.2 
L 160.56 223.2 
Q 164.88 223.2 164.88 227.52 
L 164.88 247.68 
Q 164.88 252 160.56 252 
L 128.88 252 
Q 124.56 252 124.56 247.68 
L 124.56 227.52 
Q 124.56 223.2 128.88 223.2 
z
" clip-path="url(#p6732f52db6)" style="fill: #ffffff; stroke: #000000; stroke-width: 0.8; stroke-linejoin: miter"/>
   </g>
   <g id="patch_14">
    <path d="M 174.24 223.2 
L 205.92 223.2 
Q 210.24 223.2 210.24 227.52 
L 210.24 247.68 
Q 210.24 252 205.92 252 
L 174.24 252 
Q 169.92 252 169.92 247.68 
L 169.92 227.52 
Q 169.92 223.2 174.24 223.2 
z
" clip-path="url(#p6732f52db6)" style="fill: #ffffff; stroke: #000000; stroke-width: 0.8; stroke-linejoin: miter"/>
   </g>
   <g id="patch_15">
    <path d="M 219.6 223.2 
L 251.28 223.2 
Q 255.6 223.2 255.6 227.52 
L 255.6 247.68 
Q 255.6 252 251.28 252 
L 219.6 252 
Q 215.28 252 215.28 247.68 
L 215.28 227.52 
Q 215.28 223.2 219.6 223.2 
z
" clip-path="url(#p6732f52db6)" style="fill: #ffffff; stroke: #000000; stroke-width: 0.8; stroke-linejoin: miter"/>
   </g>
   <g id="patch_16">
    <path d="M 264.96 223.2 
L 296.64 223.2 
Q 300.96 223.2 300.96 227.52 
L 300.96 247.68 
Q 300.96 252 296.64 252 
L 264.96 252 
Q 260.64 252 260.64 247.68 
L 260.64 227.52 
Q 260.64 223.2 264.96 223.2 
z
" clip-path="url(#p6732f52db6)" style="fill: #ffffff; stroke: #000000; stroke-width: 0.8; stroke-linejoin: miter"/>
   </g>
   <g id="text_1">
    <text style="font-weight: 700; font-size: 7.8px; font-family: 'Liberation Sans'; text-anchor: middle" x="76.32" y="68.959969" transform="rotate(-0 76.32 68.959969)">NavBarConfig</text>
   </g>
   <g id="text_2">
    <text style="font-style: italic; font-size: 5.9px; font-family: 'Liberation Sans'; text-anchor: start" x="18" y="87.927086" transform="rotate(-0 18 87.927086)">модуль</text>
   </g>
   <g id="text_3">
    <text style="font-style: italic; font-size: 5.9px; font-family: 'Liberation Sans'; text-anchor: start" x="59.76" y="87.925703" transform="rotate(-0 59.76 87.925703)">регион</text>
   </g>
   <g id="text_4">
    <text style="font-style: italic; font-size: 5.9px; font-family: 'Liberation Sans'; text-anchor: start" x="102.24" y="87.925703" transform="rotate(-0 102.24 87.925703)">режимы</text>
   </g>
   <g id="text_5">
    <text style="font-size: 5.9px; font-family: 'Liberation Sans'; text-anchor: start" x="18" y="101.245703" transform="rotate(-0 18 101.245703)">outliner</text>
   </g>
   <g id="text_6">
    <text style="font-size: 5.9px; font-family: 'Liberation Sans'; text-anchor: start" x="59.76" y="101.245703" transform="rotate(-0 59.76 101.245703)">left</text>
   </g>
   <g id="text_7">
    <text style="font-size: 5.9px; font-family: 'Liberation Sans'; text-anchor: start" x="102.24" y="101.245703" transform="rotate(-0 102.24 101.245703)">ред., песоч.</text>
   </g>
   <g id="text_8">
    <text style="font-size: 5.9px; font-family: 'Liberation Sans'; text-anchor: start" x="18" y="114.565703" transform="rotate(-0 18 114.565703)">inspector</text>
   </g>
   <g id="text_9">
    <text style="font-size: 5.9px; font-family: 'Liberation Sans'; text-anchor: start" x="59.76" y="114.565703" transform="rotate(-0 59.76 114.565703)">right</text>
   </g>
   <g id="text_10">
    <text style="font-size: 5.9px; font-family: 'Liberation Sans'; text-anchor: start" x="102.24" y="114.565703" transform="rotate(-0 102.24 114.565703)">ред., песоч.</text>
   </g>
   <g id="text_11">
    <text style="font-size: 5.9px; font-family: 'Liberation Sans'; text-anchor: start" x="18" y="127.885703" transform="rotate(-0 18 127.885703)">assets</text>
   </g>
   <g id="text_12">
    <text style="font-size: 5.9px; font-family: 'Liberation Sans'; text-anchor: start" x="59.76" y="127.885703" transform="rotate(-0 59.76 127.885703)">center_top</text>
   </g>
   <g id="text_13">
    <text style="font-size: 5.9px; font-family: 'Liberation Sans'; text-anchor: start" x="102.24" y="127.885703" transform="rotate(-0 102.24 127.885703)">все</text>
   </g>
   <g id="text_14">
    <text style="font-size: 5.9px; font-family: 'Liberation Sans'; text-anchor: start" x="18" y="141.205703" transform="rotate(-0 18 141.205703)">animator</text>
   </g>
   <g id="text_15">
    <text style="font-size: 5.9px; font-family: 'Liberation Sans'; text-anchor: start" x="59.76" y="141.205703" transform="rotate(-0 59.76 141.205703)">center_top</text>
   </g>
   <g id="text_16">
    <text style="font-size: 5.9px; font-family: 'Liberation Sans'; text-anchor: start" x="102.24" y="141.205703" transform="rotate(-0 102.24 141.205703)">ред.</text>
   </g>
   <g id="text_17">
    <text style="font-size: 5.9px; font-family: 'Liberation Sans'; text-anchor: start" x="18" y="154.525703" transform="rotate(-0 18 154.525703)">exporter</text>
   </g>
   <g id="text_18">
    <text style="font-size: 5.9px; font-family: 'Liberation Sans'; text-anchor: start" x="59.76" y="154.525703" transform="rotate(-0 59.76 154.525703)">center_top</text>
   </g>
   <g id="text_19">
    <text style="font-size: 5.9px; font-family: 'Liberation Sans'; text-anchor: start" x="102.24" y="154.525703" transform="rotate(-0 102.24 154.525703)">ред., песоч.</text>
   </g>
   <g id="text_20">
    <text style="font-size: 5.9px; font-family: 'Liberation Sans'; text-anchor: start" x="18" y="167.845703" transform="rotate(-0 18 167.845703)">settings</text>
   </g>
   <g id="text_21">
    <text style="font-size: 5.9px; font-family: 'Liberation Sans'; text-anchor: start" x="59.76" y="167.845703" transform="rotate(-0 59.76 167.845703)">center_top</text>
   </g>
   <g id="text_22">
    <text style="font-size: 5.9px; font-family: 'Liberation Sans'; text-anchor: start" x="102.24" y="167.845703" transform="rotate(-0 102.24 167.845703)">все</text>
   </g>
   <g id="text_23">
    <text style="font-style: italic; font-size: 6.2px; font-family: 'Liberation Sans'" transform="translate(33.964797 183.010299)">записи модулей (фрагмент):</text>
    <text style="font-style: italic; font-size: 6.2px; font-family: 'Liberation Sans'" transform="translate(24.398391 190.366357)">регион и доступность по режимам</text>
   </g>
   <g id="text_24">
    <text style="font-weight: 700; font-size: 7.7px; font-family: 'Liberation Sans'; text-anchor: middle" x="226.8" y="119.334328" transform="rotate(-0 226.8 119.334328)">PanelRegionRouter</text>
   </g>
   <g id="text_25">
    <text style="font-size: 6.6px; font-family: 'Liberation Sans'" transform="translate(202.993078 135.313486)">маршрутизатор</text>
    <text style="font-size: 6.6px; font-family: 'Liberation Sans'" transform="translate(214.027969 143.139952)">панелей</text>
   </g>
   <g id="text_26">
    <text style="font-style: italic; font-size: 6.4px; font-family: 'Liberation Mono'; text-anchor: start" x="232.56" y="49.175" transform="rotate(-0 232.56 49.175)">ModeChangedEvent</text>
   </g>
   <g id="text_27">
    <text style="font-style: italic; font-size: 6.4px; font-family: 'Liberation Sans'; text-anchor: middle" x="372.6" y="36.215" transform="rotate(-0 372.6 36.215)">регион center_top</text>
   </g>
   <g id="text_28">
    <text style="font-size: 5.5px; font-family: 'Liberation Sans'; text-anchor: middle" x="334.44" y="59.742266" transform="rotate(-0 334.44 59.742266)">assets</text>
   </g>
   <g id="text_29">
    <text style="font-size: 5.5px; font-family: 'Liberation Sans'; text-anchor: middle" x="372.6" y="59.742266" transform="rotate(-0 372.6 59.742266)">animator</text>
   </g>
   <g id="text_30">
    <text style="font-size: 5.5px; font-family: 'Liberation Sans'; text-anchor: middle" x="410.76" y="59.742266" transform="rotate(-0 410.76 59.742266)">exporter</text>
   </g>
   <g id="text_31">
    <text style="font-style: italic; font-size: 6.4px; font-family: 'Liberation Sans'; text-anchor: middle" x="372.6" y="108.215" transform="rotate(-0 372.6 108.215)">регион left</text>
   </g>
   <g id="text_32">
    <text style="font-size: 5.5px; font-family: 'Liberation Sans'; text-anchor: middle" x="372.6" y="131.742266" transform="rotate(-0 372.6 131.742266)">outliner</text>
   </g>
   <g id="text_33">
    <text style="font-style: italic; font-size: 6.4px; font-family: 'Liberation Sans'; text-anchor: middle" x="372.6" y="180.215" transform="rotate(-0 372.6 180.215)">регион right</text>
   </g>
   <g id="text_34">
    <text style="font-size: 5.5px; font-family: 'Liberation Sans'; text-anchor: middle" x="372.6" y="203.742266" transform="rotate(-0 372.6 203.742266)">inspector</text>
   </g>
   <g id="text_35">
    <text style="font-style: italic; font-size: 6.2px; font-family: 'Liberation Sans'" transform="translate(321.307109 236.965252)">жирная рамка – открытая панель;</text>
    <text style="font-style: italic; font-size: 6.2px; font-family: 'Liberation Sans'" transform="translate(324.001687 244.32131)">в регионе открыта только одна</text>
   </g>
   <g id="text_36">
    <text style="font-style: italic; font-size: 6.2px; font-family: 'Liberation Sans'" transform="translate(10.810203 231.851147)">панель навигации –</text>
    <text style="font-style: italic; font-size: 6.2px; font-family: 'Liberation Sans'" transform="translate(29.812719 239.203281)">кнопки</text>
    <text style="font-style: italic; font-size: 6.2px; font-family: 'Liberation Sans'" transform="translate(15.302297 246.555416)">RegionNavButton</text>
   </g>
   <g id="text_37">
    <text style="font-size: 5.5px; font-family: 'Liberation Sans'; text-anchor: middle" x="99.36" y="239.022266" transform="rotate(-0 99.36 239.022266)">outliner</text>
   </g>
   <g id="text_38">
    <text style="font-size: 5.5px; font-family: 'Liberation Sans'; text-anchor: middle" x="144.72" y="239.022266" transform="rotate(-0 144.72 239.022266)">assets</text>
   </g>
   <g id="text_39">
    <text style="font-size: 5.5px; font-family: 'Liberation Sans'; text-anchor: middle" x="190.08" y="239.022266" transform="rotate(-0 190.08 239.022266)">animator</text>
   </g>
   <g id="text_40">
    <text style="font-size: 5.5px; font-family: 'Liberation Sans'; text-anchor: middle" x="235.44" y="239.022266" transform="rotate(-0 235.44 239.022266)">exporter</text>
   </g>
   <g id="text_41">
    <text style="font-size: 5.5px; font-family: 'Liberation Sans'; text-anchor: middle" x="280.8" y="239.022266" transform="rotate(-0 280.8 239.022266)">settings</text>
   </g>
   <g id="patch_17">
    <path d="M 140.173154 116.430645 
Q 157.320322 120.960085 173.494627 125.232543 
" clip-path="url(#p6732f52db6)" style="fill: none; stroke: #000000; stroke-width: 0.9; stroke-linejoin: miter"/>
    <path d="M 170.473715 122.572827 
L 173.494627 125.232543 
L 169.554307 126.053443 
z
" clip-path="url(#p6732f52db6)" style="stroke: #000000; stroke-width: 0.9; stroke-linejoin: miter"/>
   </g>
   <g id="patch_18">
    <path d="M 226.8 23.597974 
Q 226.8 59.399448 226.8 94.194691 
" clip-path="url(#p6732f52db6)" style="fill: none; stroke: #000000; stroke-width: 0.9; stroke-linejoin: miter"/>
    <path d="M 228.6 90.594691 
L 226.8 94.194691 
L 225 90.594691 
z
" clip-path="url(#p6732f52db6)" style="stroke: #000000; stroke-width: 0.9; stroke-linejoin: miter"/>
   </g>
   <g id="patch_19">
    <path d="M 277.936523 124.140278 
Q 291.600854 89.637845 304.894675 56.070945 
" clip-path="url(#p6732f52db6)" style="fill: none; stroke: #000000; stroke-width: 0.9; stroke-linejoin: miter"/>
    <path d="M 301.89557 58.755227 
L 304.894675 56.070945 
L 305.242638 60.080798 
z
" clip-path="url(#p6732f52db6)" style="stroke: #000000; stroke-width: 0.9; stroke-linejoin: miter"/>
   </g>
   <g id="patch_20">
    <path d="M 279.200391 125.94999 
Q 291.600771 125.639981 302.995236 125.355119 
" clip-path="url(#p6732f52db6)" style="fill: none; stroke: #000000; stroke-width: 0.9; stroke-linejoin: miter"/>
    <path d="M 299.351374 123.645653 
L 302.995236 125.355119 
L 299.441346 127.244529 
z
" clip-path="url(#p6732f52db6)" style="stroke: #000000; stroke-width: 0.9; stroke-linejoin: miter"/>
   </g>
   <g id="patch_21">
    <path d="M 277.950586 127.8577 
Q 291.601221 161.643022 304.874904 194.495387 
" clip-path="url(#p6732f52db6)" style="fill: none; stroke: #000000; stroke-width: 0.9; stroke-linejoin: miter"/>
    <path d="M 305.195202 190.483229 
L 304.874904 194.495387 
L 301.857357 191.831854 
z
" clip-path="url(#p6732f52db6)" style="stroke: #000000; stroke-width: 0.9; stroke-linejoin: miter"/>
   </g>
   <g id="patch_22">
    <path d="M 146.255493 221.920422 
Q 185.759614 189.000321 224.490728 156.724394 
" clip-path="url(#p6732f52db6)" style="fill: none; stroke: #000000; stroke-width: 0.9; stroke-linejoin: miter"/>
    <path d="M 220.572799 157.646259 
L 224.490728 156.724394 
L 222.877463 160.411856 
z
" clip-path="url(#p6732f52db6)" style="stroke: #000000; stroke-width: 0.9; stroke-linejoin: miter"/>
   </g>
   <g id="text_42">
    <g id="patch_23">
     <path d="M 276.9235 76.007 
L 313.4765 76.007 
L 313.4765 67.993 
L 276.9235 67.993 
z
" style="fill: #ffffff"/>
    </g>
    <text style="font-style: italic; font-size: 6.4px; font-family: 'Liberation Sans'; text-anchor: middle" x="295.2" y="73.655" transform="rotate(-0 295.2 73.655)">Show / Hide</text>
   </g>
   <g id="text_43">
    <g id="patch_24">
     <path d="M 187.616 199.847 
L 251.12 199.847 
L 251.12 191.833 
L 187.616 191.833 
z
" style="fill: #ffffff"/>
    </g>
    <text style="font-style: italic; font-size: 6.4px; font-family: 'Liberation Mono'; text-anchor: start" x="188.64" y="197.495" transform="rotate(-0 188.64 197.495)">Toggle(moduleId)</text>
   </g>
  </g>
 </g>
 <defs>
  <clipPath id="p6732f52db6">
   <rect x="0" y="0" width="453.6" height="270"/>
  </clipPath>
 </defs>
</svg>
